<?xml version="1.0" encoding="utf-8"?>
<!-- Generator: Adobe Illustrator 26.0.3, SVG Export Plug-In . SVG Version: 6.00 Build 0)  -->
<svg version="1.0" id="katman_1" xmlns="http://www.w3.org/2000/svg" xmlns:xlink="http://www.w3.org/1999/xlink" x="0px" y="0px"
	 viewBox="0 0 600 450" style="enable-background:new 0 0 600 450;" xml:space="preserve">
<style type="text/css">
	.st0{fill:#010202;}
</style>
<path class="st0" d="M300.1,119.1c2.7-1.6,40.1-22.8,67.7-22.8c6-0.2,11.9,1.2,17.1,4.2c-51.1-34.9-118.4-34.9-169.6,0
	c5.2-2.9,11.1-4.4,17.1-4.2C260,96.2,297.4,117.5,300.1,119.1z"/>
<path class="st0" d="M259.2,157.7c0,0-39.5-41.4-60.2-40.9c-1.7-0.1-3.3,0.3-4.8,1l0,0c-54.8,54.3-59.6,141.3-11.2,201.3
	c-1.9-4.6-3-9.4-3-14.4C179.9,286.7,194.8,238.6,259.2,157.7z"/>
<path class="st0" d="M401.2,116.8c-20.7-0.6-60.2,40.8-60.2,40.8c64.3,80.9,79.3,129,79.3,147.1c-0.1,4.9-1.1,9.8-3,14.4
	c48.4-60.1,43.6-147-11.2-201.3l0,0C404.6,117,402.9,116.7,401.2,116.8z"/>
<path class="st0" d="M403.5,324.9c-6.1-50.1-99-126.9-103.4-130.4c-4.4,3.6-97.3,80.4-103.4,130.4c-0.4,4.6,1,9.2,4,12.8
	c56.8,50,141.9,50,198.8,0C402.4,334.2,403.9,329.6,403.5,324.9z"/>
</svg>
